<svg width="150" height="150" viewBox="0 0 150 150" fill="none" xmlns="http://www.w3.org/2000/svg">
<path d="M42.2715 62.7529C42.2715 64.5988 42.4711 66.0955 42.8203 67.193C43.2194 68.2905 43.7183 69.4879 44.4167 70.785C44.6662 71.1841 44.766 71.5832 44.766 71.9324C44.766 72.4313 44.4666 72.9302 43.8181 73.4291L40.6751 75.5244C40.2261 75.8237 39.7771 75.9734 39.378 75.9734C38.8791 75.9734 38.3802 75.7239 37.8814 75.2749C37.1829 74.5266 36.5843 73.7284 36.0854 72.9302C35.5865 72.0821 35.0876 71.1342 34.5388 69.9867C30.6475 74.5765 25.7585 76.8714 19.8716 76.8714C15.681 76.8714 12.3385 75.674 9.89395 73.2794C7.44942 70.8847 6.20221 67.6919 6.20221 63.7008C6.20221 59.4603 7.69886 56.018 10.7421 53.4238C13.7852 50.8296 17.8262 49.5325 22.9647 49.5325C24.6609 49.5325 26.407 49.6822 28.2529 49.9316C30.0988 50.181 31.9945 50.5801 33.9901 51.0291V47.3873C33.9901 43.5958 33.1918 40.9517 31.6453 39.4051C30.0489 37.8586 27.3549 37.1103 23.5135 37.1103C21.7674 37.1103 19.9714 37.3098 18.1255 37.7588C16.2797 38.2078 14.4837 38.7566 12.7376 39.455C11.9394 39.8042 11.3407 40.0038 10.9915 40.1036C10.6423 40.2034 10.3928 40.2532 10.1933 40.2532C9.49485 40.2532 9.14563 39.7544 9.14563 38.7067V36.2622C9.14563 35.464 9.2454 34.8653 9.49484 34.5161C9.74429 34.1669 10.1933 33.8176 10.8917 33.4684C12.6378 32.5704 14.7331 31.8221 17.1777 31.2234C19.6222 30.5749 22.2164 30.2756 24.9603 30.2756C30.897 30.2756 35.2373 31.6225 38.031 34.3165C40.7749 37.0105 42.1718 41.1013 42.1718 46.5891V62.7529H42.2715ZM22.0168 70.336C23.6632 70.336 25.3594 70.0366 27.1553 69.438C28.9513 68.8393 30.5478 67.7418 31.8947 66.2451C32.693 65.2972 33.2916 64.2496 33.591 63.0523C33.8903 61.8549 34.0898 60.4082 34.0898 58.712V56.6166C32.6431 56.2674 31.0965 55.9681 29.5001 55.7685C27.9037 55.569 26.3571 55.4692 24.8106 55.4692C21.4681 55.4692 19.0235 56.1178 17.3772 57.4648C15.7309 58.8117 14.9327 60.7075 14.9327 63.2019C14.9327 65.5467 15.5313 67.2928 16.7786 68.4901C17.9759 69.7373 19.722 70.336 22.0168 70.336ZM62.0772 75.7239C61.1793 75.7239 60.5806 75.5742 60.1815 75.225C59.7824 74.9257 59.4332 74.2273 59.1338 73.2794L47.41 34.7156C47.1107 33.7179 46.9611 33.0693 46.9611 32.7201C46.9611 31.9219 47.3602 31.4729 48.1584 31.4729H53.0474C53.9953 31.4729 54.6439 31.6225 54.9931 31.9718C55.3922 32.2711 55.6915 32.9695 55.9909 33.9174L64.3721 66.9436L72.1547 33.9174C72.4041 32.9196 72.7035 32.2711 73.1026 31.9718C73.5017 31.6724 74.2001 31.4729 75.0981 31.4729H79.0892C80.0371 31.4729 80.6856 31.6225 81.0847 31.9718C81.4838 32.2711 81.8331 32.9695 82.0326 33.9174L89.915 67.3427L98.5457 33.9174C98.845 32.9196 99.1942 32.2711 99.5435 31.9718C99.9426 31.6724 100.591 31.4729 101.489 31.4729H106.129C106.927 31.4729 107.376 31.872 107.376 32.7201C107.376 32.9695 107.326 33.219 107.276 33.5183C107.226 33.8176 107.126 34.2167 106.927 34.7655L94.9038 73.3293C94.6045 74.327 94.2553 74.9756 93.8562 75.2749C93.4571 75.5743 92.8085 75.7738 91.9604 75.7738H87.67C86.7221 75.7738 86.0736 75.6241 85.6745 75.2749C85.2754 74.9257 84.9261 74.2771 84.7266 73.2794L76.9939 41.1013L69.3111 73.2295C69.0616 74.2273 68.7623 74.8758 68.3632 75.225C67.9641 75.5742 67.2656 75.7239 66.3676 75.7239H62.0772ZM126.184 77.0709C123.59 77.0709 120.995 76.7716 118.501 76.1729C116.007 75.5742 114.061 74.9257 112.764 74.1774C111.966 73.7284 111.417 73.2295 111.217 72.7805C111.018 72.3315 110.918 71.8326 110.918 71.3836V68.8393C110.918 67.7917 111.317 67.2928 112.065 67.2928C112.365 67.2928 112.664 67.3427 112.963 67.4424C113.263 67.5422 113.712 67.7418 114.211 67.9413C115.907 68.6896 117.753 69.2883 119.698 69.6874C121.694 70.0865 123.64 70.2861 125.635 70.2861C128.778 70.2861 131.223 69.7373 132.919 68.6398C134.615 67.5422 135.513 65.9458 135.513 63.9004C135.513 62.5035 135.064 61.356 134.166 60.4082C133.268 59.4603 131.572 58.6122 129.127 57.814L121.893 55.569C118.252 54.4216 115.558 52.7254 113.911 50.4804C112.265 48.2853 111.417 45.8407 111.417 43.2465C111.417 41.1512 111.866 39.3054 112.764 37.7089C113.662 36.1125 114.859 34.7156 116.356 33.6181C117.853 32.4706 119.549 31.6225 121.544 31.0239C123.54 30.4252 125.635 30.1758 127.83 30.1758C128.928 30.1758 130.075 30.2257 131.173 30.3753C132.32 30.525 133.368 30.7246 134.415 30.9241C135.413 31.1735 136.361 31.423 137.259 31.7223C138.157 32.0217 138.856 32.321 139.354 32.6203C140.053 33.0194 140.552 33.4185 140.851 33.8675C141.15 34.2666 141.3 34.8154 141.3 35.5138V37.8586C141.3 38.9063 140.901 39.455 140.153 39.455C139.754 39.455 139.105 39.2555 138.257 38.8564C135.413 37.5593 132.22 36.9107 128.678 36.9107C125.835 36.9107 123.59 37.3597 122.043 38.3076C120.497 39.2555 119.698 40.7022 119.698 42.7477C119.698 44.1445 120.197 45.3419 121.195 46.2897C122.193 47.2376 124.039 48.1855 126.683 49.0336L133.767 51.2786C137.359 52.426 139.953 54.0225 141.5 56.0679C143.046 58.1133 143.794 60.4581 143.794 63.0523C143.794 65.1975 143.345 67.1431 142.497 68.8393C141.599 70.5355 140.402 72.0322 138.856 73.2295C137.309 74.4767 135.463 75.3747 133.318 76.0232C131.073 76.7217 128.728 77.0709 126.184 77.0709Z" fill="white"/>
<path d="M135.613 101.317C119.199 113.44 95.3528 119.875 74.8486 119.875C46.1129 119.875 20.2208 109.249 0.664553 91.5884C-0.881988 90.1915 0.514888 88.2958 2.36076 89.3933C23.5135 101.666 49.6051 109.099 76.5947 109.099C94.804 109.099 114.809 105.308 133.218 97.5251C135.962 96.2779 138.307 99.3211 135.613 101.317ZM142.447 93.534C140.352 90.8401 128.578 92.2369 123.24 92.8855C121.644 93.0851 121.395 91.6882 122.841 90.6405C132.22 84.0552 147.636 85.951 149.432 88.1461C151.228 90.3911 148.933 105.807 140.153 113.19C138.806 114.338 137.508 113.739 138.107 112.242C140.103 107.303 144.543 96.1781 142.447 93.534Z" fill="white"/>
</svg>
