<svg width="150" height="150" viewBox="0 0 150 150" fill="none" xmlns="http://www.w3.org/2000/svg">
<path fill-rule="evenodd" clip-rule="evenodd" d="M139.95 44.8486C139.949 42.392 139.424 40.2211 138.361 38.358C137.317 36.526 135.754 34.9904 133.658 33.7763C116.352 23.7976 99.029 13.8494 81.7286 3.86046C77.0645 1.16779 72.5423 1.26596 67.9128 3.99728C61.0245 8.05968 26.5371 27.8183 16.2603 33.7707C12.028 36.2208 9.96857 39.9704 9.96755 44.844C9.96094 64.9119 9.96755 84.9792 9.96094 105.048C9.96195 107.45 10.465 109.579 11.4807 111.414C12.5249 113.302 14.1098 114.879 16.2547 116.121C26.532 122.073 61.024 141.83 67.9108 145.894C72.5423 148.627 77.0645 148.724 81.7301 146.031C99.0311 136.041 116.355 126.094 133.663 116.115C135.808 114.874 137.393 113.295 138.437 111.409C139.452 109.574 139.956 107.445 139.957 105.042C139.957 105.042 139.957 64.917 139.95 44.8486" fill="white"/>
<path fill-rule="evenodd" clip-rule="evenodd" d="M75.1577 74.7502L11.4807 111.414C12.5249 113.302 14.1098 114.879 16.2547 116.121C26.532 122.073 61.024 141.83 67.9108 145.894C72.5423 148.627 77.0645 148.724 81.7301 146.031C99.0311 136.041 116.355 126.094 133.663 116.115C135.808 114.874 137.393 113.295 138.437 111.409L75.1577 74.7502" fill="white"/>
<path fill-rule="evenodd" clip-rule="evenodd" d="M56.2973 85.6104C60.0026 92.0791 66.9683 96.4421 74.9588 96.4421C82.9987 96.4421 90.004 92.0237 93.6905 85.4858L75.1577 74.7502L56.2973 85.6104" fill="white"/>
<path fill-rule="evenodd" clip-rule="evenodd" d="M139.95 44.8486C139.949 42.3919 139.424 40.2211 138.361 38.358L75.1577 74.7502L138.437 111.409C139.452 109.574 139.956 107.445 139.957 105.042C139.957 105.042 139.957 64.917 139.95 44.8486" fill="white"/>
<path fill-rule="evenodd" clip-rule="evenodd" d="M136.471 77.3707H131.526V82.3166H126.58V77.3707H121.635V72.4263H126.58V67.4814H131.526V72.4263H136.471V77.3707" fill="black"/>
<path fill-rule="evenodd" clip-rule="evenodd" d="M118.427 77.3707H113.483V82.3166H108.538V77.3707H103.593V72.4263H108.538V67.4814H113.483V72.4263H118.427V77.3707" fill="black"/>
<path fill-rule="evenodd" clip-rule="evenodd" d="M93.6905 85.4858C90.0039 92.0237 82.9986 96.4421 74.9588 96.4421C66.9683 96.4421 60.0026 92.0791 56.2973 85.6104C54.4973 82.4671 53.4622 78.8279 53.4622 74.9455C53.4622 63.0737 63.0869 53.4494 74.9588 53.4494C82.8979 53.4494 89.8269 57.758 93.5506 64.1606L112.34 53.3411C104.872 40.4495 90.9286 31.7764 74.9588 31.7764C51.1164 31.7764 31.7891 51.1042 31.7891 74.9455C31.7891 82.7672 33.8699 90.1021 37.5066 96.4289C44.9559 109.389 58.9386 118.115 74.9588 118.115C91.0085 118.115 105.013 109.354 112.452 96.3556L93.6905 85.4858" fill="black"/>
</svg>
