<svg width="150" height="150" viewBox="0 0 150 150" fill="none" xmlns="http://www.w3.org/2000/svg">
<path d="M116.926 42.1866L120.163 44.5303C125.793 49.0711 129.03 54.1979 129.734 60.057C135.785 58.8852 143.526 59.7641 146.904 62.1077L150 64.0119L149.437 65.1838C148.452 67.3809 148.17 67.9669 148.03 68.2598C142.541 79.2457 131.704 79.3922 126.637 79.2457C113.83 111.324 86.527 129.048 49.6536 129.048C32.6242 129.048 19.6763 123.629 10.9505 112.936C-0.590022 98.8738 -0.590022 80.564 0.395146 74.7049L0.676623 73.533H102.43C107.778 73.533 111.86 72.0683 113.83 70.8964C111.719 67.6739 111.015 64.0119 110.875 61.9612C110.453 56.1021 111.86 49.95 114.675 45.5556L116.926 42.1866ZM27.1354 55.9556V70.6035H11.6542V55.9556H27.1354ZM45.4314 55.9556V70.6035H29.9502V55.9556H45.4314ZM63.7274 55.9556V70.6035H48.2462V55.9556H63.7274ZM82.0234 55.9556V70.6035H66.5422V55.9556H82.0234ZM100.319 55.9556V70.6035H84.8381V55.9556H100.319ZM82.0234 38.3782V53.026H66.5422V38.3782H82.0234ZM63.7274 38.3782V53.026H48.2462V38.3782H63.7274ZM45.4314 38.3782V53.026H29.9502V38.3782H45.4314ZM82.0234 20.8008V35.4486H66.5422V20.8008H82.0234Z" fill="white"/>
</svg>
