<svg width="150" height="150" viewBox="0 0 150 150" fill="none" xmlns="http://www.w3.org/2000/svg">
<path fill-rule="evenodd" clip-rule="evenodd" d="M75.0006 3.51562C34.555 3.51562 1.75781 36.3068 1.75781 76.7584C1.75781 109.119 22.7441 136.574 51.8457 146.258C55.5061 146.936 56.85 144.669 56.85 142.735C56.85 140.988 56.7821 135.219 56.7505 129.099C36.3743 133.529 32.0747 120.457 32.0747 120.457C28.743 111.991 23.9424 109.74 23.9424 109.74C17.2971 105.194 24.4433 105.288 24.4433 105.288C31.7982 105.804 35.6709 112.835 35.6709 112.835C42.2034 124.032 52.8051 120.795 56.9846 118.924C57.642 114.19 59.5402 110.959 61.6348 109.13C45.3666 107.278 28.2651 100.998 28.2651 72.933C28.2651 64.9366 31.1262 58.4028 35.8116 53.2736C35.0511 51.4288 32.5441 43.9794 36.5211 33.8907C36.5211 33.8907 42.6716 31.9223 56.6681 41.3984C62.5105 39.7756 68.7762 38.9618 75.0006 38.9339C81.2251 38.9618 87.4956 39.7756 93.3489 41.3984C107.328 31.9223 113.47 33.8907 113.47 33.8907C117.457 43.9794 114.949 51.4288 114.188 53.2736C118.885 58.4028 121.726 64.9366 121.726 72.933C121.726 101.064 104.592 107.258 88.2827 109.072C90.9098 111.345 93.2507 115.802 93.2507 122.635C93.2507 132.435 93.1658 140.323 93.1658 142.735C93.1658 144.684 94.4841 146.968 98.1967 146.249C127.283 136.553 148.242 109.108 148.242 76.7584C148.242 36.3068 115.45 3.51562 75.0006 3.51562ZM29.1896 107.852C29.0283 108.215 28.4558 108.325 27.9343 108.075C27.4031 107.836 27.1047 107.34 27.2769 106.975C27.4346 106.6 28.0083 106.496 28.5383 106.747C29.0708 106.986 29.374 107.486 29.1896 107.852ZM32.7924 111.066C32.443 111.39 31.7602 111.24 31.2969 110.728C30.8178 110.217 30.728 109.534 31.0822 109.206C31.4424 108.882 32.1047 109.033 32.585 109.544C33.064 110.061 33.1574 110.739 32.7924 111.066ZM35.264 115.179C34.8152 115.491 34.0814 115.199 33.6278 114.547C33.179 113.896 33.179 113.115 33.6375 112.802C34.0923 112.489 34.8152 112.771 35.2749 113.417C35.7224 114.079 35.7224 114.86 35.264 115.179ZM39.444 119.943C39.0425 120.385 38.1875 120.267 37.5616 119.663C36.9212 119.072 36.7429 118.234 37.1456 117.791C37.5519 117.347 38.4118 117.472 39.0425 118.071C39.6781 118.661 39.8721 119.505 39.444 119.943ZM44.8463 121.551C44.6692 122.125 43.8456 122.385 43.016 122.142C42.1876 121.89 41.6455 121.219 41.8129 120.639C41.9851 120.061 42.8123 119.79 43.6479 120.051C44.4751 120.3 45.0185 120.967 44.8463 121.551ZM50.9943 122.233C51.0149 122.837 50.3114 123.338 49.4406 123.349C48.5649 123.368 47.8566 122.879 47.8469 122.285C47.8469 121.675 48.5346 121.179 49.4103 121.164C50.2811 121.147 50.9943 121.633 50.9943 122.233ZM57.034 122.001C57.1383 122.591 56.5331 123.196 55.6683 123.357C54.8181 123.513 54.0309 123.149 53.923 122.564C53.8175 121.96 54.4336 121.355 55.2826 121.199C56.1486 121.048 56.9236 121.402 57.034 122.001Z" fill="white"/>
</svg>
