<svg width="150" height="150" viewBox="0 0 150 150" fill="none" xmlns="http://www.w3.org/2000/svg">
<g clip-path="url(#clip0_2702_672)">
<path d="M37.9688 116.953L1.64062 88.3594L19.6875 54.8438L71.4844 75L37.9688 116.953Z" fill="white"/>
<path d="M150 40.0781L147.188 126.797L89.5313 150L54.8438 127.5L105.469 75L83.4375 26.25L103.359 2.34375L150 40.0781Z" fill="white"/>
<path d="M150 40.0781L104.297 93.9844L83.4375 26.25L103.359 2.34375L150 40.0781Z" fill="white"/>
<path d="M72.1875 124.453L12.1875 146.25L21.7969 112.5L34.2188 70.7813L0 59.2969L21.7969 0L68.6719 5.625L115.078 58.5938L72.1875 124.453Z" fill="white"/>
<path d="M121.875 28.125H28.125V121.875H121.875V28.125Z" fill="black"/>
<path d="M37.0312 104.297H72.1875V110.156H37.0312V104.297ZM62.1094 47.3438V40.3125H42.8906V47.3438H48.2813V71.9531H42.8906V79.2187H62.1094V71.9531H56.7188V47.3438H62.1094ZM80.8594 79.6875C78.1836 79.8082 75.5213 79.2435 73.125 78.0469C71.1644 76.9652 69.4172 75.5357 67.9687 73.8281L73.3594 67.7344C74.3328 68.8038 75.4349 69.7485 76.6406 70.5469C77.7751 71.212 79.0766 71.5374 80.3906 71.4844C81.8356 71.5948 83.241 70.9799 84.1406 69.8437C85.2262 68.4457 85.73 66.6824 85.5469 64.9219V39.8438H94.2188V65.1562C94.3077 67.2293 93.9892 69.2996 93.2812 71.25C92.6628 73.2287 91.5306 75.008 90 76.4062C87.3438 78.3783 84.1633 79.52 80.8594 79.6875Z" fill="white"/>
</g>
<defs>
<clipPath id="clip0_2702_672">
<rect width="150" height="150" fill="white"/>
</clipPath>
</defs>
</svg>
