<svg width="150" height="150" viewBox="0 0 150 150" fill="none" xmlns="http://www.w3.org/2000/svg">
<g clip-path="url(#clip0_2702_662)">
<path d="M55.5505 116.003C55.5505 116.003 49.8184 119.337 59.6299 120.465C71.5163 121.821 77.5912 121.626 90.6901 119.147C90.6901 119.147 94.1339 121.306 98.9434 123.177C69.5793 135.762 32.4865 122.448 55.5505 116.003Z" fill="white"/>
<path d="M51.9632 99.5807C51.9632 99.5807 45.5341 104.34 55.3529 105.355C68.0503 106.665 78.0777 106.772 95.4289 103.431C95.4289 103.431 97.8288 105.864 101.603 107.195C66.0995 117.576 26.5555 108.014 51.9632 99.5807Z" fill="white"/>
<path d="M82.212 71.7226C89.4473 80.0527 80.3109 87.5488 80.3109 87.5488C80.3109 87.5488 98.6827 78.0648 90.2454 66.1885C82.3652 55.1132 76.3221 49.6103 109.037 30.637C109.037 30.637 57.6856 43.4621 82.212 71.7226Z" fill="white"/>
<path d="M121.048 128.15C121.048 128.15 125.29 131.646 116.377 134.349C99.4274 139.484 45.8316 141.035 30.9429 134.554C25.5908 132.226 35.6275 128.995 38.7847 128.317C42.0773 127.603 43.9589 127.736 43.9589 127.736C38.0068 123.543 5.48712 135.969 27.4405 139.527C87.3106 149.237 136.578 135.155 121.048 128.15Z" fill="white"/>
<path d="M58.308 82.5649C58.308 82.5649 31.0458 89.0402 48.6538 91.3916C56.0884 92.387 70.9092 92.1618 84.7144 91.0051C95.9967 90.0534 107.326 88.0298 107.326 88.0298C107.326 88.0298 103.347 89.7336 100.469 91.6988C72.7847 98.9799 19.3038 95.5926 34.7003 88.1451C47.7211 81.851 58.308 82.5649 58.308 82.5649Z" fill="white"/>
<path d="M107.213 109.901C135.355 95.2772 122.343 81.2238 113.261 83.1172C111.035 83.5805 110.042 83.982 110.042 83.982C110.042 83.982 110.869 82.6874 112.447 82.127C130.415 75.8103 144.233 100.758 106.647 110.638C106.647 110.639 107.083 110.249 107.213 109.901Z" fill="white"/>
<path d="M90.2461 0C90.2461 0 105.832 15.591 75.4637 39.5654C51.1117 58.7971 69.9107 69.7624 75.4536 82.2908C61.2389 69.4657 50.8072 58.1757 57.8056 47.668C68.0776 32.2436 96.5345 24.7653 90.2461 0Z" fill="white"/>
<path d="M61.0726 149.529C88.0858 151.258 129.568 148.569 130.55 135.787C130.55 135.787 128.662 140.633 108.225 144.481C85.1688 148.82 56.7321 148.313 39.866 145.532C39.8664 145.532 43.3187 148.39 61.0726 149.529Z" fill="white"/>
</g>
<defs>
<clipPath id="clip0_2702_662">
<rect width="150" height="150" fill="white"/>
</clipPath>
</defs>
</svg>
