<svg width="150" height="150" viewBox="0 0 150 150" fill="none" xmlns="http://www.w3.org/2000/svg">
<path fill-rule="evenodd" clip-rule="evenodd" d="M145.033 26.3697C142.773 26.442 143.488 27.0932 138.604 28.2951C133.672 29.5087 127.648 29.1366 122.337 31.3638C106.484 38.0125 103.303 60.7366 88.8907 68.8768C78.1179 74.9618 67.2491 75.4472 57.4774 78.5092C51.0557 80.5229 44.0309 84.6526 38.2126 89.6665C33.6964 93.5597 33.5785 96.9829 28.8598 101.866C23.8125 107.089 8.79983 101.954 1.99585 109.948C4.18766 112.164 5.14857 112.785 9.46794 112.21C8.57367 113.905 3.30215 115.333 4.33406 117.827C5.41985 120.45 18.1642 122.229 29.7493 115.234C35.1447 111.977 39.4421 107.282 47.845 106.161C58.7187 104.712 71.245 107.091 83.8331 108.906C81.9666 114.471 78.2191 118.172 75.2173 122.605C74.2877 123.606 77.0844 123.718 80.2749 123.113C86.0143 121.694 90.1505 120.551 94.4821 118.03C99.8034 114.932 100.61 106.99 107.139 105.271C110.777 110.863 120.671 112.184 126.81 107.711C121.423 106.186 119.934 94.7195 121.753 89.6665C123.475 84.8835 125.177 77.2325 126.912 70.91C128.774 64.1199 129.461 55.5615 131.715 52.1027C135.107 46.8989 138.854 45.1119 142.107 42.1775C145.36 39.2431 148.338 36.3867 148.24 29.6722C148.208 27.5095 147.09 26.304 145.033 26.3697V26.3697V26.3697V26.3697Z" fill="white"/>
<path d="M26.5677 114.475C19.9427 117.348 14.9255 118.53 6.67549 117.348C6.21379 116.726 7.33208 116.025 8.69097 115.172C10.4151 114.091 12.5266 112.766 12.2896 111.053C11.1286 110.924 10.1426 110.943 9.22547 110.961C7.59212 110.992 6.17697 111.019 4.37958 110.203C4.68944 109.632 5.14488 109.156 5.71825 108.76C8.22687 107.023 12.9871 106.781 17.6597 106.542C22.5686 106.292 27.3808 106.046 29.3841 104.079C31.5517 101.953 33.0497 99.7369 34.52 97.562C34.6871 97.3149 34.8538 97.0683 35.0211 96.8224C36.611 94.4842 38.2547 92.2111 40.7588 90.1624C41.6835 89.406 42.6887 88.6586 43.7558 87.9291C48.0231 85.0086 53.3022 82.3597 58.4975 80.5339C61.8184 79.3665 65.1601 78.7017 68.5512 78.0272C72.387 77.2642 76.2859 76.4886 80.2895 74.9588C84.9497 73.1777 90.0173 70.9777 94.148 67.8994C95.1288 67.1675 96.0568 66.3875 96.9148 65.5515C101.072 61.4984 104.055 56.354 106.98 51.3083C112.354 42.0396 117.535 33.1043 129.45 31.8805C131.017 31.7195 132.384 31.7086 133.635 31.6987C134.16 31.6945 134.665 31.6904 135.156 31.6755C137.067 31.6186 138.759 31.3966 140.598 30.3596C141.141 32.2115 141.991 33.0614 145.666 33.4013C145.129 38.0598 142.021 40.6079 138.537 43.0526C138.177 43.3053 137.813 43.5568 137.447 43.8095C134.698 45.7073 131.859 47.6683 129.954 50.6325C128.716 52.5589 127.731 57.098 126.502 62.7613C125.536 67.2137 124.419 72.361 122.91 77.48C119.946 87.529 115.471 97.4649 107.655 101.818C107.324 100.985 107.278 99.8648 107.233 98.745C107.167 97.1046 107.1 95.4643 106.135 94.7233C105.084 97.7203 103.896 100.58 102.505 103.238C97.9184 112.003 91.1282 118.567 79.7812 120.57C85.1652 113.285 90.3133 105.761 90.4248 93.2041C88.4642 93.6283 87.5396 96.2291 86.5646 98.972C85.6551 101.53 84.7017 104.212 82.8229 105.367C80.327 105.638 77.7984 105.637 75.2537 105.484C72.2527 105.304 69.2295 104.917 66.2128 104.531C58.7238 103.572 51.2748 102.618 44.3056 104.854C40.4778 106.082 37.0511 108.271 33.758 110.374C31.3242 111.928 28.9634 113.436 26.5677 114.475Z" fill="black"/>
<path d="M122.226 107.459C120.424 105.765 118.384 98.7905 118.164 95.2755C117.719 95.7468 117.185 96.2629 116.611 96.8172C114.437 98.9181 111.695 101.568 111.061 104.411C112.62 106.9 118.698 108.317 122.226 107.459Z" fill="black"/>
<path d="M139.593 32.1498C138.487 33.3185 134.875 37.1922 133.736 40.7121C133.535 41.314 132.947 41.5823 133.242 40.6471C134.39 37.2182 137.553 33.5251 139.154 31.8855C139.86 31.2292 140.025 31.648 139.593 32.1498Z" fill="white"/>
<path d="M135.566 40.9553C136.077 38.0175 138.143 35.4747 139.413 33.911C139.72 33.5341 139.98 33.214 140.16 32.9591C140.518 32.402 140.295 32.0108 139.689 32.7598C139.46 33.0724 139.195 33.4121 138.909 33.778C137.507 35.5756 135.612 38.0051 135.068 40.9602C134.907 41.9272 135.452 41.5791 135.566 40.9553Z" fill="white"/>
<path d="M140.356 34.393C140.523 34.1306 140.673 33.8945 140.797 33.6845C141.107 33.0998 140.853 32.7289 140.311 33.5251C140.206 33.6965 140.099 33.8701 139.99 34.0467C138.851 35.8872 137.513 38.0498 137.19 41.3327C137.112 42.3094 137.626 41.9182 137.686 41.2863C137.962 38.1586 139.421 35.8636 140.356 34.393Z" fill="white"/>
<path d="M141.136 34.9384C140.424 36.3057 139.475 38.1288 139.475 41.2586C139.469 41.8938 138.993 42.3289 138.984 41.3497C139.017 38.0507 139.817 36.4604 140.729 34.6468C140.816 34.4726 140.905 34.2964 140.994 34.1163C141.467 33.2746 141.751 33.6219 141.494 34.2318C141.388 34.4556 141.266 34.6895 141.136 34.9384Z" fill="white"/>
<path d="M123.333 39.4906C125.938 41.7523 131.404 39.9371 130.427 35.4372C126.379 35.1021 124.035 36.4757 123.333 39.4906Z" fill="white"/>
</svg>
