<svg width="150" height="150" viewBox="0 0 150 150" fill="none" xmlns="http://www.w3.org/2000/svg">
<ellipse cx="75" cy="74.8375" rx="73.2422" ry="38.5094" fill="url(#paint0_radial_2702_644)"/>
<ellipse cx="75" cy="74.8376" rx="70.3812" ry="35.6483" fill="white"/>
<path fill-rule="evenodd" clip-rule="evenodd" d="M89.2479 86.396L92.7384 68.4288C93.5394 64.3661 92.8528 61.3335 90.7929 59.4452C88.7901 57.6141 85.3569 56.6986 80.3215 56.6986H74.2561L75.9728 47.7722C76.03 47.4289 75.9728 47.0856 75.7439 46.7995C75.515 46.5134 75.2289 46.3989 74.8856 46.3989H66.5314C65.9592 46.3989 65.5014 46.7995 65.387 47.3145L61.6676 66.3689C61.3243 64.1945 60.5232 62.3634 59.1499 60.8757C56.6895 58.0719 52.8557 56.6414 47.6486 56.6414H31.5697C30.9975 56.6414 30.5397 57.0419 30.4253 57.5569L22.9294 96.2379C22.8722 96.5813 22.9294 96.9246 23.1583 97.2107C23.3872 97.4968 23.6733 97.6112 24.0166 97.6112H32.428C33.0002 97.6112 33.458 97.2107 33.5724 96.6957L35.4035 87.3688H41.6405C44.902 87.3688 47.7058 87.0255 49.823 86.3388C52.0546 85.5949 54.0573 84.3933 55.8312 82.7339C57.2617 81.4178 58.4633 79.9301 59.3788 78.3279L57.8911 86.0527C57.8339 86.396 57.8911 86.7393 58.12 87.0255C58.3489 87.3116 58.635 87.426 58.9783 87.426H67.3325C67.9047 87.426 68.3624 87.0255 68.4769 86.5105L72.5968 65.3389H78.3188C80.7793 65.3389 81.4659 65.7967 81.6948 66.0255C81.8665 66.1972 82.2098 66.8839 81.8092 69.001L78.4905 86.1099C78.4332 86.4532 78.4905 86.7966 78.7193 87.0827C78.9482 87.3688 79.2343 87.4832 79.5776 87.4832H88.1607C88.6757 87.3116 89.1335 86.911 89.2479 86.396V86.396ZM50.5669 71.5187C50.0519 74.2081 49.0791 76.1536 47.6486 77.2408C46.2181 78.3279 43.8721 78.9001 40.7822 78.9001H37.0628L39.7522 65.0528H44.5587C48.1064 65.0528 49.5369 65.7967 50.1091 66.4261C50.853 67.3416 51.0246 69.1154 50.5669 71.5187V71.5187Z" fill="white"/>
<path fill-rule="evenodd" clip-rule="evenodd" d="M124.953 60.8757C122.493 58.0719 118.659 56.6414 113.452 56.6414H97.2588C96.6866 56.6414 96.2288 57.0419 96.1144 57.5569L88.6185 96.1807C88.5613 96.524 88.6185 96.8673 88.8474 97.1534C89.0762 97.4395 89.3623 97.554 89.7057 97.554H98.1171C98.6893 97.554 99.147 97.1534 99.2615 96.6385L101.093 87.3115H107.33C110.591 87.3115 113.395 86.9682 115.512 86.2816C117.744 85.5377 119.746 84.3361 121.52 82.6767C123.008 81.3034 124.267 79.7584 125.182 78.099C126.098 76.4396 126.785 74.6086 127.185 72.6059C128.158 67.6277 127.414 63.7367 124.953 60.8757V60.8757ZM116.199 71.5187C115.684 74.208 114.711 76.1535 113.28 77.2407C111.85 78.3279 109.504 78.9001 106.414 78.9001H102.695L105.384 65.0528H110.191C113.738 65.0528 115.169 65.7966 115.741 66.4261C116.542 67.3416 116.714 69.1154 116.199 71.5187V71.5187Z" fill="white"/>
<path fill-rule="evenodd" clip-rule="evenodd" d="M44.5587 63.9084C47.7631 63.9084 49.8802 64.4806 50.9674 65.6822C52.0546 66.8838 52.2835 68.8865 51.7113 71.7476C51.1391 74.723 49.9947 76.8974 48.3353 78.1562C46.6759 79.4151 44.1582 80.0445 40.7822 80.0445H35.6895L38.8367 63.9084H44.5587V63.9084ZM24.0738 96.4096H32.4852L34.4879 86.1671H41.6977C44.902 86.1671 47.477 85.8238 49.5369 85.1371C51.5968 84.4505 53.4279 83.3633 55.1445 81.7611C56.575 80.4451 57.7194 79.0146 58.5777 77.4696C59.436 75.9247 60.0655 74.208 60.4088 72.3198C61.3243 67.7421 60.6377 64.1945 58.4061 61.6195C56.1745 59.0446 52.6268 57.7858 47.7631 57.7858H31.5697L24.0738 96.4096V96.4096Z" fill="#000004"/>
<path fill-rule="evenodd" clip-rule="evenodd" d="M66.5886 47.5433H74.9428L72.9401 57.7858H80.3787C85.0708 57.7858 88.2751 58.5869 90.049 60.2463C91.8228 61.9057 92.3378 64.5378 91.6512 68.1999L88.1607 86.1671H79.6921L83.0109 69.0582C83.4114 67.1127 83.2397 65.7967 82.6103 65.11C81.9809 64.4234 80.5504 64.0228 78.4332 64.0228H71.7384L67.4469 86.1671H59.0927L66.5886 47.5433V47.5433Z" fill="#000004"/>
<path fill-rule="evenodd" clip-rule="evenodd" d="M110.191 63.9084C113.395 63.9084 115.512 64.4806 116.599 65.6822C117.686 66.8838 117.915 68.8865 117.343 71.7476C116.771 74.723 115.627 76.8974 113.967 78.1562C112.308 79.4151 109.79 80.0445 106.414 80.0445H101.321L104.469 63.9084H110.191V63.9084ZM89.7057 96.4096H98.1171L100.12 86.1671H107.33C110.534 86.1671 113.109 85.8238 115.169 85.1371C117.229 84.4505 119.06 83.3633 120.776 81.7611C122.207 80.4451 123.351 79.0146 124.21 77.4696C125.068 75.9247 125.697 74.208 126.041 72.3198C126.956 67.7421 126.27 64.1945 124.038 61.6195C121.806 59.0446 118.259 57.7858 113.395 57.7858H97.2015L89.7057 96.4096V96.4096Z" fill="#000004"/>
<defs>
<radialGradient id="paint0_radial_2702_644" cx="0" cy="0" r="1" gradientUnits="userSpaceOnUse" gradientTransform="translate(45.7327 49.8709) scale(207.743 109.227)">
<stop stop-color="#040404"/>
<stop offset="0.5"/>
<stop offset="1" stop-color="#231F20"/>
</radialGradient>
</defs>
</svg>
