<svg width="150" height="150" viewBox="0 0 150 150" fill="none" xmlns="http://www.w3.org/2000/svg">
<g clip-path="url(#clip0_2704_88)">
<path d="M149.387 84.2347C154.636 44.3873 125.616 7.95752 84.5983 2.86752C43.5807 -2.22247 5.86246 25.9179 0.613407 65.6926C-4.63565 105.467 24.3841 141.97 65.4017 147.132C106.494 152.222 144.063 124.082 149.387 84.2347Z" fill="white"/>
<path d="M102.07 48.9684L70.4258 79.6538L61.5024 71.0008C92.6218 40.8244 95.6963 43.4421 102.07 48.9684Z" fill="black"/>
<path d="M70.4258 80.3809C70.2009 80.3809 70.0509 80.3082 69.9009 80.1627L60.9025 71.5098C60.6026 71.2189 60.6026 70.7826 60.9025 70.4918C92.5468 39.8064 95.8463 42.7149 102.52 48.5321C102.67 48.6775 102.745 48.8229 102.745 49.0411C102.745 49.2592 102.67 49.4046 102.52 49.5501L70.8757 80.1627C70.8008 80.3082 70.5758 80.3809 70.4258 80.3809ZM62.5522 71.0008L70.4258 78.6358L100.945 49.0411C95.3963 44.2419 91.647 42.7877 62.5522 71.0008Z" fill="white"/>
<path d="M79.4991 88.4522L70.8757 80.09L102.52 49.4047C110.993 57.6941 98.3208 71.1462 79.4991 88.4522Z" fill="black"/>
<path d="M79.4991 89.1793C79.2741 89.1793 79.1242 89.1066 78.9742 88.9611L70.3508 80.599C70.2008 80.4536 70.2008 80.3082 70.2008 80.09C70.2008 79.8719 70.2758 79.7264 70.4257 79.581L102.07 48.8956C102.37 48.6048 102.82 48.6048 103.12 48.8956C105.07 50.6408 106.119 53.1131 106.044 55.6581C105.894 63.7293 96.4461 73.982 80.099 88.9611C79.874 89.1066 79.6491 89.1793 79.4991 89.1793ZM71.9255 80.09C76.7246 84.8164 78.7492 86.707 79.4991 87.4342C92.0968 75.7999 104.32 63.8748 104.395 55.6581C104.47 53.7675 103.72 51.8769 102.445 50.4226L71.9255 80.09Z" fill="white"/>
<path d="M61.6523 71.2189L68.0262 77.3996C68.1762 77.5451 68.1762 77.6905 68.0262 77.8359C67.9512 77.9086 67.9512 77.9086 67.8762 77.9086L54.6786 80.6718C54.0037 80.7445 53.4038 80.3082 53.2539 79.6538C53.1789 79.2902 53.3288 78.9266 53.5538 78.7085L61.2024 71.2916C61.3524 71.1462 61.5774 71.0735 61.6523 71.2189Z" fill="black"/>
<path d="M54.4537 81.3989C53.3289 81.3989 52.5041 80.5263 52.5041 79.4356C52.5041 78.9266 52.729 78.4176 53.104 78.054L60.7526 70.6372C61.2025 70.2736 61.8024 70.2736 62.2523 70.6372L68.6262 76.8179C69.0761 77.1815 69.0761 77.8359 68.6262 78.2722C68.4762 78.4176 68.3262 78.4903 68.1013 78.563L54.9036 81.3262C54.7537 81.3262 54.6037 81.3989 54.4537 81.3989ZM61.4275 72.0188L54.0788 79.1447C53.9288 79.2902 53.8538 79.5083 54.0038 79.7265C54.0788 79.9446 54.3037 80.0173 54.5287 79.9446L66.9015 77.3269L61.4275 72.0188Z" fill="white"/>
<path d="M118.792 31.9533C113.993 27.445 106.269 27.5904 101.62 32.3169C96.971 37.0433 97.1209 44.4601 101.995 48.9684C105.969 52.6768 111.968 53.3313 116.692 50.5681L108.144 42.2787L118.792 31.9533Z" fill="black"/>
<path d="M110.394 52.9677C103.27 52.9677 97.496 47.3687 97.496 40.4608C97.496 33.553 103.27 27.954 110.394 27.954C113.693 27.954 116.917 29.1901 119.317 31.4443C119.467 31.5897 119.542 31.7351 119.542 31.9533C119.542 32.1714 119.467 32.3168 119.317 32.4623L109.194 42.2787L117.142 49.9864C117.442 50.2772 117.442 50.7135 117.142 51.0044C117.067 51.0771 117.067 51.0771 116.992 51.1498C115.043 52.3132 112.718 52.9677 110.394 52.9677ZM110.394 29.481C104.095 29.481 98.9957 34.4255 99.0707 40.5335C99.0707 46.6415 104.17 51.5861 110.469 51.5134C112.193 51.5134 113.918 51.1498 115.493 50.3499L107.619 42.7877C107.469 42.6422 107.394 42.4968 107.394 42.2787C107.394 42.0605 107.469 41.9151 107.619 41.7697L117.667 32.026C115.643 30.3535 113.093 29.481 110.394 29.481Z" fill="white"/>
<path d="M119.017 32.1714L118.867 32.026L108.144 42.2787L116.617 50.4954C117.442 49.9864 118.267 49.4047 118.942 48.7503C123.741 44.1693 123.741 36.7524 119.017 32.1714Z" fill="black"/>
<path d="M116.692 51.2952C116.467 51.2952 116.317 51.2225 116.168 51.077L107.619 42.7876C107.469 42.6422 107.394 42.4968 107.394 42.2786C107.394 42.0605 107.469 41.9151 107.619 41.7696L118.267 31.4442C118.567 31.1534 119.017 31.1534 119.317 31.4442L119.542 31.5896C124.566 36.4615 124.566 44.3146 119.617 49.2592C118.867 49.9863 118.042 50.6408 117.142 51.1498C116.917 51.2225 116.767 51.2952 116.692 51.2952ZM109.194 42.2786L116.767 49.6228C117.367 49.2592 117.967 48.7502 118.417 48.3139C122.691 44.1692 122.916 37.4068 118.792 33.0439L109.194 42.2786Z" fill="white"/>
<path d="M103.345 50.2772C101.545 48.5321 98.6207 48.5321 96.821 50.2772L68.5511 77.6905L73.2753 82.2715L103.195 56.8215C105.145 55.2218 105.295 52.3859 103.645 50.4954C103.495 50.4227 103.42 50.35 103.345 50.2772Z" fill="black"/>
<path d="M73.2003 82.9986C72.9753 82.9986 72.8254 82.9259 72.6754 82.7804L67.9512 78.1995C67.6513 77.9086 67.6513 77.4723 67.9512 77.1815L96.2212 49.7682C98.3208 47.7322 101.695 47.7322 103.795 49.7682C105.894 51.8042 105.894 55.0763 103.795 57.1123C103.72 57.1851 103.645 57.2578 103.57 57.3305L73.6502 82.7804C73.5752 82.9259 73.4253 82.9986 73.2003 82.9986ZM69.601 77.6905L73.2753 81.2535L102.67 56.2398C104.32 54.9309 104.47 52.5313 103.12 50.9316C101.77 49.3319 99.2956 49.1865 97.6459 50.4953C97.5709 50.5681 97.4959 50.6408 97.346 50.7135L69.601 77.6905Z" fill="white"/>
<path d="M46.88 108.885C46.58 109.03 46.4301 109.321 46.505 109.612L47.7798 114.847C48.0798 115.575 47.6298 116.447 46.805 116.665C46.2051 116.883 45.5302 116.665 45.1553 116.229L36.9068 108.303L63.8269 82.1987L73.1252 82.3442L79.4241 88.4521C77.9244 89.6883 68.851 98.1958 46.88 108.885Z" fill="black"/>
<path d="M46.2802 117.392C45.6803 117.392 45.0804 117.174 44.7054 116.738L36.5319 108.812C36.3819 108.667 36.3069 108.521 36.3069 108.303C36.3069 108.085 36.3819 107.94 36.5319 107.794L63.4521 81.6898C63.602 81.5444 63.827 81.4717 63.977 81.4717L73.2753 81.6171C73.5002 81.6171 73.6502 81.6898 73.8002 81.8353L80.0991 87.9432C80.249 88.0887 80.324 88.3068 80.324 88.525C80.324 88.7431 80.249 88.8885 80.0241 89.034L79.4992 89.4702C71.5506 96.2327 60.7525 102.995 47.33 109.467L48.6047 114.629C48.8297 115.575 48.3798 116.593 47.4799 117.102C47.03 117.32 46.6551 117.392 46.2802 117.392ZM38.0316 108.303L45.7552 115.72C45.9802 116.084 46.4301 116.229 46.8051 116.011C47.18 115.793 47.33 115.356 47.105 114.993L45.8302 109.757C45.6803 109.103 45.9802 108.521 46.5801 108.23C59.8527 101.759 70.5758 95.0692 78.4494 88.4522L72.9004 83.0714L64.2769 82.926L38.0316 108.303Z" fill="white"/>
<path d="M30.5329 114.557L36.9818 108.303L46.5801 117.611L31.2828 116.593C30.6079 116.52 30.158 115.938 30.233 115.284C30.233 114.993 30.308 114.702 30.5329 114.557Z" fill="black"/>
<path d="M46.5801 118.265L31.2078 117.247C30.083 117.174 29.3332 116.229 29.4082 115.138C29.4832 114.702 29.6331 114.266 30.0081 113.975L36.4569 107.721C36.7568 107.431 37.2068 107.431 37.5067 107.721L47.105 117.029C47.3299 117.247 47.4049 117.538 47.255 117.829C47.105 118.12 46.88 118.265 46.5801 118.265ZM36.9818 109.321L31.0579 115.066C30.8329 115.211 30.8329 115.575 31.0579 115.72C31.1329 115.793 31.2078 115.865 31.3578 115.865L44.6304 116.738L36.9818 109.321Z" fill="white"/>
<path d="M61.2024 85.5436C60.7525 85.5436 60.4526 85.18 60.4526 84.8164C60.4526 84.5983 60.5276 84.4529 60.6775 84.3074L67.9512 77.2542C68.2512 76.9633 68.7011 76.9633 69.001 77.2542L73.7252 81.8351C73.9501 82.0533 74.0251 82.2714 73.9502 82.5623C73.8752 82.7804 73.6502 82.9986 73.3503 83.0713L61.3524 85.5436C61.2774 85.5436 61.2024 85.5436 61.2024 85.5436ZM68.4761 78.7812L63.527 83.5803L71.6256 81.9079L68.4761 78.7812Z" fill="white"/>
<path d="M73.1253 82.3442L64.8768 84.0894C64.2769 84.2348 63.677 83.8712 63.527 83.2895C63.4521 82.9259 63.527 82.5624 63.827 82.2715L68.4012 77.8359L73.1253 82.3442Z" fill="black"/>
<path d="M64.7268 84.8164C63.677 84.8164 62.8521 84.0166 62.8521 82.9986C62.8521 82.4896 63.0771 82.0533 63.377 81.6897L67.9512 77.2542C68.2511 76.9633 68.7011 76.9633 69.001 77.2542L73.7252 81.8351C73.9501 82.0533 74.0251 82.2714 73.9501 82.5623C73.8751 82.7804 73.6502 82.9986 73.3502 83.0713L65.1017 84.8164C64.9517 84.8164 64.8018 84.8164 64.7268 84.8164ZM68.4761 78.7812L64.4268 82.7077C64.2769 82.8531 64.2769 82.9986 64.3518 83.144C64.4268 83.2894 64.5768 83.3621 64.8018 83.3621L71.7005 81.9079L68.4761 78.7812Z" fill="white"/>
<path d="M119.092 39.152C118.942 38.7157 118.417 38.4976 117.967 38.643C117.517 38.7884 117.292 39.2974 117.442 39.7337C117.442 39.8064 117.517 39.8792 117.517 39.9519C117.967 40.8244 117.817 41.9152 117.217 42.715C116.917 43.0786 116.992 43.5876 117.292 43.8784C117.667 44.1693 118.192 44.0966 118.492 43.733C119.617 42.3514 119.842 40.6063 119.092 39.152Z" fill="white"/>
</g>
<defs>
<clipPath id="clip0_2704_88">
<rect width="150" height="150" fill="white"/>
</clipPath>
</defs>
</svg>
